# xmcd
#
# Track frame offsets:
#	150
#	21432
#	44565
#	70072
#	93072
#	112552
#	142132
#	172957
#
# Disc length: 2603 seconds
#
# Revision: 3
# Processed by: cddbd v1.5.2PL0 Copyright (c) Steve Scherf et al.
# Submitted via: audiograbber 1.83.01
#
DISCID=620a2908
DTITLE=Yuri Naumov - Проходной двор (блюз в 1000 дней)
DYEAR=1986
DGENRE=Blues
TTITLE0=Отдавшим сердце рок-н-роллу
TTITLE1=Когда не остаётся слов
TTITLE2=Пессимистический блюз
TTITLE3=Кошка на крыше
TTITLE4=Я собрался не туда
TTITLE5=Рождён чтоб играть
TTITLE6=Сказка о Карле
TTITLE7=И я пою
EXTD=\nYEAR: 1986,1997  ID3G:   0
EXTT0=
EXTT1=
EXTT2=
EXTT3=
EXTT4=
EXTT5=
EXTT6=
EXTT7=
PLAYORDER=
